<?xml version="1.0" encoding="UTF-8" standalone="no"?>
<svg
   xmlns:dc="http://purl.org/dc/elements/1.1/"
   xmlns:cc="http://creativecommons.org/ns#"
   xmlns:rdf="http://www.w3.org/1999/02/22-rdf-syntax-ns#"
   xmlns:svg="http://www.w3.org/2000/svg"
   xmlns="http://www.w3.org/2000/svg"
   xmlns:sodipodi="http://sodipodi.sourceforge.net/DTD/sodipodi-0.dtd"
   xmlns:inkscape="http://www.inkscape.org/namespaces/inkscape"
   viewBox="0 0 1080 1800"
   width="1080.011"
   height="1799.7703"
   id="svg3388"
   version="1.1"
   inkscape:version="0.91 r13725"
   sodipodi:docname="poi.svg">
  <metadata
     id="metadata3403">
    <rdf:RDF>
      <cc:Work
         rdf:about="">
        <dc:format>image/svg+xml</dc:format>
        <dc:type
           rdf:resource="http://purl.org/dc/dcmitype/StillImage" />
        <dc:title>pink pin</dc:title>
      </cc:Work>
    </rdf:RDF>
  </metadata>
  <defs
     id="defs3401" />
  <sodipodi:namedview
     pagecolor="#ffffff"
     bordercolor="#666666"
     borderopacity="1"
     objecttolerance="10"
     gridtolerance="10"
     guidetolerance="10"
     inkscape:pageopacity="0"
     inkscape:pageshadow="2"
     inkscape:window-width="1920"
     inkscape:window-height="1020"
     id="namedview3399"
     showgrid="false"
     fit-margin-top="0"
     fit-margin-left="0"
     fit-margin-right="0"
     fit-margin-bottom="0"
     inkscape:zoom="0.34587857"
     inkscape:cx="1492.6678"
     inkscape:cy="968.38987"
     inkscape:window-x="1918"
     inkscape:window-y="117"
     inkscape:window-maximized="1"
     inkscape:current-layer="svg3388" />
  <title
     id="title3390">pink pin</title>
  <g
     id="g3392"
     transform="matrix(0.99671055,0,0,0.99611955,-629.68161,-161.01813)">
    <title
       id="title3394">Layer 1</title>
    <g
       id="svg_1">
      <path
         id="svg_2"
         d="m 1174.9399,1873.629 c -38.7658,-190.301 -107.1159,-348.665 -189.90291,-495.4399 -61.40698,-108.8721 -132.54395,-209.363 -198.36402,-314.938 -21.97198,-35.244 -40.93396,-72.47705 -62.04699,-109.05408 -42.21595,-73.13696 -76.44397,-157.935 -74.26899,-267.932 2.125,-107.47297 33.20801,-193.68399 78.02997,-264.172 73.71906,-115.93497 197.20105,-210.98898 362.88404,-235.96898 135.4661,-20.424 262.4751,14.082 352.543,66.748 73.6001,43.03799 130.596,100.52701 173.92,168.28 45.22,70.716 76.359,154.26001 78.971,263.23199 1.337,55.83002 -7.805,107.53199 -20.684,150.41797 -13.0339,43.40906 -33.996,79.69501 -52.646,118.45404 -36.406,75.65896 -82.049,144.98196 -127.855,214.34606 -136.437,206.6059 -264.4961,417.3099 -320.5801,706.0269 z"
         stroke-miterlimit="10"
         inkscape:connector-curvature="0"
         style="clip-rule:evenodd;fill:#070707;fill-rule:evenodd;stroke:#000000;stroke-width:37;stroke-miterlimit:10" />
      <circle
         id="svg_4"
         r="183.33203"
         cy="685.047"
         cx="1173.546"
         style="clip-rule:evenodd;fill:#070707;fill-rule:evenodd" />
    </g>
  </g>
</svg>
